<svg width="427" height="138" viewBox="0 0 427 138" fill="none" xmlns="http://www.w3.org/2000/svg">
<path d="M207.46 125.61C216.929 125.61 225.721 122.21 231.132 118.13C231.132 118.13 232.654 116.94 232.654 114.9V95.5196C232.654 95.5196 232.654 93.4796 230.625 93.4796H206.953V96.5396C206.953 96.5396 206.953 98.5796 208.982 98.5796H225.045C225.045 98.5796 227.074 98.5796 227.074 100.62V111.84C227.074 111.84 227.074 113.88 225.552 115.07C222.34 117.62 215.407 120.17 207.967 120.17C193.933 120.17 182.943 110.82 182.943 95.5196C182.943 80.0496 194.102 70.8696 208.136 70.8696C215.238 70.8696 223.016 73.4196 228.088 78.6896L230.287 76.4796C230.287 76.4796 231.639 74.9496 230.287 73.5896C225.552 68.8296 216.591 65.5996 207.798 65.5996C190.382 65.5996 177.363 77.1596 177.363 95.5196C177.194 114.22 190.382 125.61 207.46 125.61Z" fill="#181818"/>
<path d="M282.027 91.27C282.027 91.27 282.873 93.14 280.844 93.65L264.781 97.9C264.781 97.9 262.921 98.41 263.597 96.54L273.066 74.61C273.066 74.61 273.911 72.74 274.588 74.61L282.027 91.27ZM300.458 124.25C300.458 124.25 302.487 124.25 301.641 122.38L276.955 66.79H273.235C273.235 66.79 271.206 66.79 270.361 68.66L245.336 124.25H249.563C249.563 124.25 251.592 124.25 252.438 122.38L259.032 107.59C259.032 107.59 259.877 105.72 261.737 105.21L283.38 99.09C283.38 99.09 285.24 98.58 286.085 100.45L296.061 124.42L300.458 124.25Z" fill="#181818"/>
<path d="M360.482 69C360.482 69 360.482 66.96 358.453 66.96H310.264V70.36C310.264 70.36 310.264 72.4 312.293 72.4H330.554C330.554 72.4 332.583 72.4 332.583 74.44V124.42H336.303C336.303 124.42 338.332 124.42 338.332 122.38V74.44C338.332 74.44 338.332 72.4 340.361 72.4H360.651V69H360.482Z" fill="#181818"/>
<path d="M382.971 118.81C382.971 118.81 380.942 118.81 380.942 116.77V99.0901C380.942 99.0901 380.942 97.0501 382.971 97.0501H416.112V93.6501C416.112 93.6501 416.112 91.6101 414.083 91.6101H382.971C382.971 91.6101 380.942 91.6101 380.942 89.5701V74.1001C380.942 74.1001 380.942 72.0601 382.971 72.0601H419.663V68.6601C419.663 68.6601 419.663 66.6201 417.634 66.6201H377.222C377.222 66.6201 375.193 66.6201 375.193 68.6601V122.04C375.193 122.04 375.193 124.08 377.222 124.08H419.832V120.68C419.832 120.68 419.832 118.64 417.803 118.64H382.971V118.81Z" fill="#181818"/>
<path d="M213.039 15.7899C213.039 15.7899 213.039 13.9199 211.01 13.9199H177.023V15.7899C177.023 15.7899 177.023 17.6599 179.052 17.6599H191.058C191.058 17.6599 193.087 17.6599 193.087 19.6999V54.8899H195.285C195.285 54.8899 197.314 54.8899 197.314 52.8499V19.6999C197.314 19.6999 197.314 17.6599 199.343 17.6599H213.208V15.7899H213.039Z" fill="#181818"/>
<path d="M258.693 13.9199C258.693 13.9199 256.664 13.9199 256.664 15.9599V29.7299C256.664 29.7299 256.664 31.7699 254.635 31.7699H229.611C229.611 31.7699 227.582 31.7699 227.582 29.7299V13.9199H225.552C225.552 13.9199 223.523 13.9199 223.523 15.9599V54.8899H225.722C225.722 54.8899 227.751 54.8899 227.751 52.8499V37.5499C227.751 37.5499 227.751 35.5099 229.78 35.5099H254.804C254.804 35.5099 256.833 35.5099 256.833 37.5499V54.8899H259.031C259.031 54.8899 261.06 54.8899 261.06 52.8499V13.9199H258.693Z" fill="#181818"/>
<path d="M282.027 50.9799C282.027 50.9799 279.998 50.9799 279.998 48.9399V37.5499C279.998 37.5499 279.998 35.5099 282.027 35.5099H305.022V33.6399C305.022 33.6399 305.022 31.7699 302.993 31.7699H281.857C281.857 31.7699 279.828 31.7699 279.828 29.7299V19.6999C279.828 19.6999 279.828 17.6599 281.857 17.6599H307.558V15.7899C307.558 15.7899 307.558 13.9199 305.529 13.9199H277.968C277.968 13.9199 275.939 13.9199 275.939 15.9599V53.0199C275.939 53.0199 275.939 55.0599 277.968 55.0599H307.727V53.1899C307.727 53.1899 307.728 51.3199 305.699 51.3199H282.027V50.9799Z" fill="#181818"/>
<path d="M116.316 86.0003C116.485 85.6603 116.654 85.3203 116.654 84.8103C116.823 84.3003 117.162 83.7903 117.838 83.1103C119.191 81.9203 121.558 81.4103 121.558 81.4103H127.983C128.321 81.4103 128.659 81.5803 128.659 81.7503C128.828 81.9203 128.828 82.0903 128.828 82.2603C122.741 109.8 98.393 130.37 69.1413 130.37C41.4113 130.37 18.0776 111.84 10.4688 86.5103C10.2997 85.4903 10.1306 83.9603 10.8069 82.9403C11.8214 81.4103 14.865 81.4103 14.865 81.4103H20.4448C26.0246 103.17 45.6385 119.32 68.9723 119.32C90.9533 119.49 109.384 105.55 116.316 86.0003ZM82.33 81.4103H110.905C105.664 99.6003 88.9243 112.69 69.1413 112.69C49.0202 112.69 32.1117 98.9203 27.0391 80.2203L65.7596 64.2403L63.8997 59.6503C63.8997 59.6503 63.2233 58.1203 61.8707 58.8003L27.5464 72.9103C27.0391 73.0803 26.5319 73.0803 26.1937 72.9103C26.0246 72.7403 25.8555 72.2303 25.6864 71.7203C25.6864 70.7003 25.5174 69.8503 25.5174 68.8303C25.5174 44.6903 44.9621 25.1403 69.1413 25.1403C76.2429 25.1403 82.8372 26.8403 88.7552 29.9003L96.7022 26.8403C88.7552 21.5703 79.2864 18.5103 69.1413 18.5103C41.4113 18.5103 18.923 41.1203 18.923 68.8303C18.923 70.7003 19.0921 72.4003 19.2612 74.2703H13.5123C13.5123 74.2703 10.976 74.2703 9.45426 73.0803C8.43975 72.2303 7.93249 70.7003 7.76341 70.0203C7.76341 69.5103 7.76341 69.0003 7.76341 68.6603C7.76341 34.6603 35.1552 7.12031 68.9723 7.12031C84.1899 7.12031 98.0549 12.7303 108.876 22.0803L115.978 19.3603C103.804 7.63031 87.2335 0.320312 68.9723 0.320312C31.4354 0.320312 1 30.9203 1 68.6603C1 106.4 31.4354 137 68.9723 137C104.649 137 133.901 109.46 136.775 74.2703H133.394H83.8517C83.8517 74.2703 82.33 74.2703 82.33 75.8003V81.4103Z" fill="#181818"/>
</svg>
