<svg xmlns="http://www.w3.org/2000/svg" viewBox="0 0 100 100" preserveAspectRatio="xMidYMid meet"><rect width="100" height="100" fill="#FAF8F2"/><rect x="0.000" y="0.000" width="3.448" height="3.448" fill="#1A1A1A"/><rect x="3.448" y="0.000" width="3.448" height="3.448" fill="#1A1A1A"/><rect x="6.897" y="0.000" width="3.448" height="3.448" fill="#1A1A1A"/><rect x="10.345" y="0.000" width="3.448" height="3.448" fill="#1A1A1A"/><rect x="13.793" y="0.000" width="3.448" height="3.448" fill="#1A1A1A"/><rect x="17.241" y="0.000" width="3.448" height="3.448" fill="#1A1A1A"/><rect x="20.690" y="0.000" width="3.448" height="3.448" fill="#1A1A1A"/><rect x="48.276" y="0.000" width="3.448" height="3.448" fill="#1A1A1A"/><rect x="65.517" y="0.000" width="3.448" height="3.448" fill="#1A1A1A"/><rect x="68.966" y="0.000" width="3.448" height="3.448" fill="#1A1A1A"/><rect x="75.862" y="0.000" width="3.448" height="3.448" fill="#1A1A1A"/><rect x="79.310" y="0.000" width="3.448" height="3.448" fill="#1A1A1A"/><rect x="82.759" y="0.000" width="3.448" height="3.448" fill="#1A1A1A"/><rect x="86.207" y="0.000" width="3.448" height="3.448" fill="#1A1A1A"/><rect x="89.655" y="0.000" width="3.448" height="3.448" fill="#1A1A1A"/><rect x="93.103" y="0.000" width="3.448" height="3.448" fill="#1A1A1A"/><rect x="96.552" y="0.000" width="3.448" height="3.448" fill="#1A1A1A"/><rect x="0.000" y="3.448" width="3.448" height="3.448" fill="#1A1A1A"/><rect x="20.690" y="3.448" width="3.448" height="3.448" fill="#1A1A1A"/><rect x="31.034" y="3.448" width="3.448" height="3.448" fill="#1A1A1A"/><rect x="34.483" y="3.448" width="3.448" height="3.448" fill="#1A1A1A"/><rect x="41.379" y="3.448" width="3.448" height="3.448" fill="#1A1A1A"/><rect x="44.828" y="3.448" width="3.448" height="3.448" fill="#1A1A1A"/><rect x="51.724" y="3.448" width="3.448" height="3.448" fill="#1A1A1A"/><rect x="55.172" y="3.448" width="3.448" height="3.448" fill="#1A1A1A"/><rect x="68.966" y="3.448" width="3.448" height="3.448" fill="#1A1A1A"/><rect x="75.862" y="3.448" width="3.448" height="3.448" fill="#1A1A1A"/><rect x="96.552" y="3.448" width="3.448" height="3.448" fill="#1A1A1A"/><rect x="0.000" y="6.897" width="3.448" height="3.448" fill="#1A1A1A"/><rect x="6.897" y="6.897" width="3.448" height="3.448" fill="#1A1A1A"/><rect x="10.345" y="6.897" width="3.448" height="3.448" fill="#1A1A1A"/><rect x="13.793" y="6.897" width="3.448" height="3.448" fill="#1A1A1A"/><rect x="20.690" y="6.897" width="3.448" height="3.448" fill="#1A1A1A"/><rect x="27.586" y="6.897" width="3.448" height="3.448" fill="#1A1A1A"/><rect x="31.034" y="6.897" width="3.448" height="3.448" fill="#1A1A1A"/><rect x="51.724" y="6.897" width="3.448" height="3.448" fill="#1A1A1A"/><rect x="55.172" y="6.897" width="3.448" height="3.448" fill="#1A1A1A"/><rect x="62.069" y="6.897" width="3.448" height="3.448" fill="#1A1A1A"/><rect x="65.517" y="6.897" width="3.448" height="3.448" fill="#1A1A1A"/><rect x="75.862" y="6.897" width="3.448" height="3.448" fill="#1A1A1A"/><rect x="82.759" y="6.897" width="3.448" height="3.448" fill="#1A1A1A"/><rect x="86.207" y="6.897" width="3.448" height="3.448" fill="#1A1A1A"/><rect x="89.655" y="6.897" width="3.448" height="3.448" fill="#1A1A1A"/><rect x="96.552" y="6.897" width="3.448" height="3.448" fill="#1A1A1A"/><rect x="0.000" y="10.345" width="3.448" height="3.448" fill="#1A1A1A"/><rect x="6.897" y="10.345" width="3.448" height="3.448" fill="#1A1A1A"/><rect x="10.345" y="10.345" width="3.448" height="3.448" fill="#1A1A1A"/><rect x="13.793" y="10.345" width="3.448" height="3.448" fill="#1A1A1A"/><rect x="20.690" y="10.345" width="3.448" height="3.448" fill="#1A1A1A"/><rect x="27.586" y="10.345" width="3.448" height="3.448" fill="#1A1A1A"/><rect x="31.034" y="10.345" width="3.448" height="3.448" fill="#1A1A1A"/><rect x="44.828" y="10.345" width="3.448" height="3.448" fill="#1A1A1A"/><rect x="58.621" y="10.345" width="3.448" height="3.448" fill="#1A1A1A"/><rect x="62.069" y="10.345" width="3.448" height="3.448" fill="#1A1A1A"/><rect x="68.966" y="10.345" width="3.448" height="3.448" fill="#1A1A1A"/><rect x="75.862" y="10.345" width="3.448" height="3.448" fill="#1A1A1A"/><rect x="82.759" y="10.345" width="3.448" height="3.448" fill="#1A1A1A"/><rect x="86.207" y="10.345" width="3.448" height="3.448" fill="#1A1A1A"/><rect x="89.655" y="10.345" width="3.448" height="3.448" fill="#1A1A1A"/><rect x="96.552" y="10.345" width="3.448" height="3.448" fill="#1A1A1A"/><rect x="0.000" y="13.793" width="3.448" height="3.448" fill="#1A1A1A"/><rect x="6.897" y="13.793" width="3.448" height="3.448" fill="#1A1A1A"/><rect x="10.345" y="13.793" width="3.448" height="3.448" fill="#1A1A1A"/><rect x="13.793" y="13.793" width="3.448" height="3.448" fill="#1A1A1A"/><rect x="20.690" y="13.793" width="3.448" height="3.448" fill="#1A1A1A"/><rect x="27.586" y="13.793" width="3.448" height="3.448" fill="#1A1A1A"/><rect x="31.034" y="13.793" width="3.448" height="3.448" fill="#1A1A1A"/><rect x="34.483" y="13.793" width="3.448" height="3.448" fill="#1A1A1A"/><rect x="37.931" y="13.793" width="3.448" height="3.448" fill="#1A1A1A"/><rect x="41.379" y="13.793" width="3.448" height="3.448" fill="#1A1A1A"/><rect x="48.276" y="13.793" width="3.448" height="3.448" fill="#1A1A1A"/><rect x="58.621" y="13.793" width="3.448" height="3.448" fill="#1A1A1A"/><rect x="65.517" y="13.793" width="3.448" height="3.448" fill="#1A1A1A"/><rect x="68.966" y="13.793" width="3.448" height="3.448" fill="#1A1A1A"/><rect x="75.862" y="13.793" width="3.448" height="3.448" fill="#1A1A1A"/><rect x="82.759" y="13.793" width="3.448" height="3.448" fill="#1A1A1A"/><rect x="86.207" y="13.793" width="3.448" height="3.448" fill="#1A1A1A"/><rect x="89.655" y="13.793" width="3.448" height="3.448" fill="#1A1A1A"/><rect x="96.552" y="13.793" width="3.448" height="3.448" fill="#1A1A1A"/><rect x="0.000" y="17.241" width="3.448" height="3.448" fill="#1A1A1A"/><rect x="20.690" y="17.241" width="3.448" height="3.448" fill="#1A1A1A"/><rect x="27.586" y="17.241" width="3.448" height="3.448" fill="#1A1A1A"/><rect x="31.034" y="17.241" width="3.448" height="3.448" fill="#1A1A1A"/><rect x="34.483" y="17.241" width="3.448" height="3.448" fill="#1A1A1A"/><rect x="41.379" y="17.241" width="3.448" height="3.448" fill="#1A1A1A"/><rect x="51.724" y="17.241" width="3.448" height="3.448" fill="#1A1A1A"/><rect x="55.172" y="17.241" width="3.448" height="3.448" fill="#1A1A1A"/><rect x="58.621" y="17.241" width="3.448" height="3.448" fill="#1A1A1A"/><rect x="62.069" y="17.241" width="3.448" height="3.448" fill="#1A1A1A"/><rect x="68.966" y="17.241" width="3.448" height="3.448" fill="#1A1A1A"/><rect x="75.862" y="17.241" width="3.448" height="3.448" fill="#1A1A1A"/><rect x="96.552" y="17.241" width="3.448" height="3.448" fill="#1A1A1A"/><rect x="0.000" y="20.690" width="3.448" height="3.448" fill="#1A1A1A"/><rect x="3.448" y="20.690" width="3.448" height="3.448" fill="#1A1A1A"/><rect x="6.897" y="20.690" width="3.448" height="3.448" fill="#1A1A1A"/><rect x="10.345" y="20.690" width="3.448" height="3.448" fill="#1A1A1A"/><rect x="13.793" y="20.690" width="3.448" height="3.448" fill="#1A1A1A"/><rect x="17.241" y="20.690" width="3.448" height="3.448" fill="#1A1A1A"/><rect x="20.690" y="20.690" width="3.448" height="3.448" fill="#1A1A1A"/><rect x="27.586" y="20.690" width="3.448" height="3.448" fill="#1A1A1A"/><rect x="34.483" y="20.690" width="3.448" height="3.448" fill="#1A1A1A"/><rect x="41.379" y="20.690" width="3.448" height="3.448" fill="#1A1A1A"/><rect x="48.276" y="20.690" width="3.448" height="3.448" fill="#1A1A1A"/><rect x="55.172" y="20.690" width="3.448" height="3.448" fill="#1A1A1A"/><rect x="62.069" y="20.690" width="3.448" height="3.448" fill="#1A1A1A"/><rect x="68.966" y="20.690" width="3.448" height="3.448" fill="#1A1A1A"/><rect x="75.862" y="20.690" width="3.448" height="3.448" fill="#1A1A1A"/><rect x="79.310" y="20.690" width="3.448" height="3.448" fill="#1A1A1A"/><rect x="82.759" y="20.690" width="3.448" height="3.448" fill="#1A1A1A"/><rect x="86.207" y="20.690" width="3.448" height="3.448" fill="#1A1A1A"/><rect x="89.655" y="20.690" width="3.448" height="3.448" fill="#1A1A1A"/><rect x="93.103" y="20.690" width="3.448" height="3.448" fill="#1A1A1A"/><rect x="96.552" y="20.690" width="3.448" height="3.448" fill="#1A1A1A"/><rect x="27.586" y="24.138" width="3.448" height="3.448" fill="#1A1A1A"/><rect x="31.034" y="24.138" width="3.448" height="3.448" fill="#1A1A1A"/><rect x="37.931" y="24.138" width="3.448" height="3.448" fill="#1A1A1A"/><rect x="41.379" y="24.138" width="3.448" height="3.448" fill="#1A1A1A"/><rect x="51.724" y="24.138" width="3.448" height="3.448" fill="#1A1A1A"/><rect x="55.172" y="24.138" width="3.448" height="3.448" fill="#1A1A1A"/><rect x="68.966" y="24.138" width="3.448" height="3.448" fill="#1A1A1A"/><rect x="0.000" y="27.586" width="3.448" height="3.448" fill="#1A1A1A"/><rect x="6.897" y="27.586" width="3.448" height="3.448" fill="#1A1A1A"/><rect x="10.345" y="27.586" width="3.448" height="3.448" fill="#1A1A1A"/><rect x="13.793" y="27.586" width="3.448" height="3.448" fill="#1A1A1A"/><rect x="17.241" y="27.586" width="3.448" height="3.448" fill="#1A1A1A"/><rect x="20.690" y="27.586" width="3.448" height="3.448" fill="#1A1A1A"/><rect x="31.034" y="27.586" width="3.448" height="3.448" fill="#1A1A1A"/><rect x="34.483" y="27.586" width="3.448" height="3.448" fill="#1A1A1A"/><rect x="37.931" y="27.586" width="3.448" height="3.448" fill="#1A1A1A"/><rect x="44.828" y="27.586" width="3.448" height="3.448" fill="#1A1A1A"/><rect x="51.724" y="27.586" width="3.448" height="3.448" fill="#1A1A1A"/><rect x="75.862" y="27.586" width="3.448" height="3.448" fill="#1A1A1A"/><rect x="79.310" y="27.586" width="3.448" height="3.448" fill="#1A1A1A"/><rect x="82.759" y="27.586" width="3.448" height="3.448" fill="#1A1A1A"/><rect x="86.207" y="27.586" width="3.448" height="3.448" fill="#1A1A1A"/><rect x="89.655" y="27.586" width="3.448" height="3.448" fill="#1A1A1A"/><rect x="0.000" y="31.034" width="3.448" height="3.448" fill="#1A1A1A"/><rect x="3.448" y="31.034" width="3.448" height="3.448" fill="#1A1A1A"/><rect x="6.897" y="31.034" width="3.448" height="3.448" fill="#1A1A1A"/><rect x="24.138" y="31.034" width="3.448" height="3.448" fill="#1A1A1A"/><rect x="37.931" y="31.034" width="3.448" height="3.448" fill="#1A1A1A"/><rect x="48.276" y="31.034" width="3.448" height="3.448" fill="#1A1A1A"/><rect x="55.172" y="31.034" width="3.448" height="3.448" fill="#1A1A1A"/><rect x="65.517" y="31.034" width="3.448" height="3.448" fill="#1A1A1A"/><rect x="68.966" y="31.034" width="3.448" height="3.448" fill="#1A1A1A"/><rect x="75.862" y="31.034" width="3.448" height="3.448" fill="#1A1A1A"/><rect x="82.759" y="31.034" width="3.448" height="3.448" fill="#1A1A1A"/><rect x="89.655" y="31.034" width="3.448" height="3.448" fill="#1A1A1A"/><rect x="93.103" y="31.034" width="3.448" height="3.448" fill="#1A1A1A"/><rect x="10.345" y="34.483" width="3.448" height="3.448" fill="#1A1A1A"/><rect x="20.690" y="34.483" width="3.448" height="3.448" fill="#1A1A1A"/><rect x="27.586" y="34.483" width="3.448" height="3.448" fill="#1A1A1A"/><rect x="31.034" y="34.483" width="3.448" height="3.448" fill="#1A1A1A"/><rect x="34.483" y="34.483" width="3.448" height="3.448" fill="#1A1A1A"/><rect x="37.931" y="34.483" width="3.448" height="3.448" fill="#1A1A1A"/><rect x="44.828" y="34.483" width="3.448" height="3.448" fill="#1A1A1A"/><rect x="51.724" y="34.483" width="3.448" height="3.448" fill="#1A1A1A"/><rect x="62.069" y="34.483" width="3.448" height="3.448" fill="#1A1A1A"/><rect x="68.966" y="34.483" width="3.448" height="3.448" fill="#1A1A1A"/><rect x="72.414" y="34.483" width="3.448" height="3.448" fill="#1A1A1A"/><rect x="75.862" y="34.483" width="3.448" height="3.448" fill="#1A1A1A"/><rect x="79.310" y="34.483" width="3.448" height="3.448" fill="#1A1A1A"/><rect x="86.207" y="34.483" width="3.448" height="3.448" fill="#1A1A1A"/><rect x="0.000" y="37.931" width="3.448" height="3.448" fill="#1A1A1A"/><rect x="3.448" y="37.931" width="3.448" height="3.448" fill="#1A1A1A"/><rect x="6.897" y="37.931" width="3.448" height="3.448" fill="#1A1A1A"/><rect x="13.793" y="37.931" width="3.448" height="3.448" fill="#1A1A1A"/><rect x="17.241" y="37.931" width="3.448" height="3.448" fill="#1A1A1A"/><rect x="24.138" y="37.931" width="3.448" height="3.448" fill="#1A1A1A"/><rect x="27.586" y="37.931" width="3.448" height="3.448" fill="#1A1A1A"/><rect x="31.034" y="37.931" width="3.448" height="3.448" fill="#1A1A1A"/><rect x="34.483" y="37.931" width="3.448" height="3.448" fill="#1A1A1A"/><rect x="37.931" y="37.931" width="3.448" height="3.448" fill="#1A1A1A"/><rect x="51.724" y="37.931" width="3.448" height="3.448" fill="#1A1A1A"/><rect x="55.172" y="37.931" width="3.448" height="3.448" fill="#1A1A1A"/><rect x="62.069" y="37.931" width="3.448" height="3.448" fill="#1A1A1A"/><rect x="68.966" y="37.931" width="3.448" height="3.448" fill="#1A1A1A"/><rect x="72.414" y="37.931" width="3.448" height="3.448" fill="#1A1A1A"/><rect x="75.862" y="37.931" width="3.448" height="3.448" fill="#1A1A1A"/><rect x="82.759" y="37.931" width="3.448" height="3.448" fill="#1A1A1A"/><rect x="93.103" y="37.931" width="3.448" height="3.448" fill="#1A1A1A"/><rect x="96.552" y="37.931" width="3.448" height="3.448" fill="#1A1A1A"/><rect x="6.897" y="41.379" width="3.448" height="3.448" fill="#1A1A1A"/><rect x="10.345" y="41.379" width="3.448" height="3.448" fill="#1A1A1A"/><rect x="20.690" y="41.379" width="3.448" height="3.448" fill="#1A1A1A"/><rect x="24.138" y="41.379" width="3.448" height="3.448" fill="#1A1A1A"/><rect x="27.586" y="41.379" width="3.448" height="3.448" fill="#1A1A1A"/><rect x="41.379" y="41.379" width="3.448" height="3.448" fill="#1A1A1A"/><rect x="44.828" y="41.379" width="3.448" height="3.448" fill="#1A1A1A"/><rect x="51.724" y="41.379" width="3.448" height="3.448" fill="#1A1A1A"/><rect x="55.172" y="41.379" width="3.448" height="3.448" fill="#1A1A1A"/><rect x="58.621" y="41.379" width="3.448" height="3.448" fill="#1A1A1A"/><rect x="62.069" y="41.379" width="3.448" height="3.448" fill="#1A1A1A"/><rect x="68.966" y="41.379" width="3.448" height="3.448" fill="#1A1A1A"/><rect x="79.310" y="41.379" width="3.448" height="3.448" fill="#1A1A1A"/><rect x="82.759" y="41.379" width="3.448" height="3.448" fill="#1A1A1A"/><rect x="86.207" y="41.379" width="3.448" height="3.448" fill="#1A1A1A"/><rect x="89.655" y="41.379" width="3.448" height="3.448" fill="#1A1A1A"/><rect x="3.448" y="44.828" width="3.448" height="3.448" fill="#1A1A1A"/><rect x="6.897" y="44.828" width="3.448" height="3.448" fill="#1A1A1A"/><rect x="10.345" y="44.828" width="3.448" height="3.448" fill="#1A1A1A"/><rect x="17.241" y="44.828" width="3.448" height="3.448" fill="#1A1A1A"/><rect x="24.138" y="44.828" width="3.448" height="3.448" fill="#1A1A1A"/><rect x="34.483" y="44.828" width="3.448" height="3.448" fill="#1A1A1A"/><rect x="41.379" y="44.828" width="3.448" height="3.448" fill="#1A1A1A"/><rect x="48.276" y="44.828" width="3.448" height="3.448" fill="#1A1A1A"/><rect x="55.172" y="44.828" width="3.448" height="3.448" fill="#1A1A1A"/><rect x="58.621" y="44.828" width="3.448" height="3.448" fill="#1A1A1A"/><rect x="65.517" y="44.828" width="3.448" height="3.448" fill="#1A1A1A"/><rect x="68.966" y="44.828" width="3.448" height="3.448" fill="#1A1A1A"/><rect x="72.414" y="44.828" width="3.448" height="3.448" fill="#1A1A1A"/><rect x="79.310" y="44.828" width="3.448" height="3.448" fill="#1A1A1A"/><rect x="82.759" y="44.828" width="3.448" height="3.448" fill="#1A1A1A"/><rect x="89.655" y="44.828" width="3.448" height="3.448" fill="#1A1A1A"/><rect x="93.103" y="44.828" width="3.448" height="3.448" fill="#1A1A1A"/><rect x="0.000" y="48.276" width="3.448" height="3.448" fill="#1A1A1A"/><rect x="10.345" y="48.276" width="3.448" height="3.448" fill="#1A1A1A"/><rect x="17.241" y="48.276" width="3.448" height="3.448" fill="#1A1A1A"/><rect x="20.690" y="48.276" width="3.448" height="3.448" fill="#1A1A1A"/><rect x="31.034" y="48.276" width="3.448" height="3.448" fill="#1A1A1A"/><rect x="44.828" y="48.276" width="3.448" height="3.448" fill="#1A1A1A"/><rect x="48.276" y="48.276" width="3.448" height="3.448" fill="#1A1A1A"/><rect x="51.724" y="48.276" width="3.448" height="3.448" fill="#1A1A1A"/><rect x="58.621" y="48.276" width="3.448" height="3.448" fill="#1A1A1A"/><rect x="62.069" y="48.276" width="3.448" height="3.448" fill="#1A1A1A"/><rect x="68.966" y="48.276" width="3.448" height="3.448" fill="#1A1A1A"/><rect x="79.310" y="48.276" width="3.448" height="3.448" fill="#1A1A1A"/><rect x="89.655" y="48.276" width="3.448" height="3.448" fill="#1A1A1A"/><rect x="3.448" y="51.724" width="3.448" height="3.448" fill="#1A1A1A"/><rect x="6.897" y="51.724" width="3.448" height="3.448" fill="#1A1A1A"/><rect x="10.345" y="51.724" width="3.448" height="3.448" fill="#1A1A1A"/><rect x="13.793" y="51.724" width="3.448" height="3.448" fill="#1A1A1A"/><rect x="17.241" y="51.724" width="3.448" height="3.448" fill="#1A1A1A"/><rect x="31.034" y="51.724" width="3.448" height="3.448" fill="#1A1A1A"/><rect x="34.483" y="51.724" width="3.448" height="3.448" fill="#1A1A1A"/><rect x="37.931" y="51.724" width="3.448" height="3.448" fill="#1A1A1A"/><rect x="51.724" y="51.724" width="3.448" height="3.448" fill="#1A1A1A"/><rect x="55.172" y="51.724" width="3.448" height="3.448" fill="#1A1A1A"/><rect x="62.069" y="51.724" width="3.448" height="3.448" fill="#1A1A1A"/><rect x="65.517" y="51.724" width="3.448" height="3.448" fill="#1A1A1A"/><rect x="68.966" y="51.724" width="3.448" height="3.448" fill="#1A1A1A"/><rect x="75.862" y="51.724" width="3.448" height="3.448" fill="#1A1A1A"/><rect x="86.207" y="51.724" width="3.448" height="3.448" fill="#1A1A1A"/><rect x="6.897" y="55.172" width="3.448" height="3.448" fill="#1A1A1A"/><rect x="10.345" y="55.172" width="3.448" height="3.448" fill="#1A1A1A"/><rect x="13.793" y="55.172" width="3.448" height="3.448" fill="#1A1A1A"/><rect x="17.241" y="55.172" width="3.448" height="3.448" fill="#1A1A1A"/><rect x="20.690" y="55.172" width="3.448" height="3.448" fill="#1A1A1A"/><rect x="24.138" y="55.172" width="3.448" height="3.448" fill="#1A1A1A"/><rect x="27.586" y="55.172" width="3.448" height="3.448" fill="#1A1A1A"/><rect x="31.034" y="55.172" width="3.448" height="3.448" fill="#1A1A1A"/><rect x="34.483" y="55.172" width="3.448" height="3.448" fill="#1A1A1A"/><rect x="37.931" y="55.172" width="3.448" height="3.448" fill="#1A1A1A"/><rect x="41.379" y="55.172" width="3.448" height="3.448" fill="#1A1A1A"/><rect x="44.828" y="55.172" width="3.448" height="3.448" fill="#1A1A1A"/><rect x="51.724" y="55.172" width="3.448" height="3.448" fill="#1A1A1A"/><rect x="55.172" y="55.172" width="3.448" height="3.448" fill="#1A1A1A"/><rect x="58.621" y="55.172" width="3.448" height="3.448" fill="#1A1A1A"/><rect x="79.310" y="55.172" width="3.448" height="3.448" fill="#1A1A1A"/><rect x="86.207" y="55.172" width="3.448" height="3.448" fill="#1A1A1A"/><rect x="93.103" y="55.172" width="3.448" height="3.448" fill="#1A1A1A"/><rect x="96.552" y="55.172" width="3.448" height="3.448" fill="#1A1A1A"/><rect x="0.000" y="58.621" width="3.448" height="3.448" fill="#1A1A1A"/><rect x="3.448" y="58.621" width="3.448" height="3.448" fill="#1A1A1A"/><rect x="10.345" y="58.621" width="3.448" height="3.448" fill="#1A1A1A"/><rect x="13.793" y="58.621" width="3.448" height="3.448" fill="#1A1A1A"/><rect x="17.241" y="58.621" width="3.448" height="3.448" fill="#1A1A1A"/><rect x="34.483" y="58.621" width="3.448" height="3.448" fill="#1A1A1A"/><rect x="41.379" y="58.621" width="3.448" height="3.448" fill="#1A1A1A"/><rect x="44.828" y="58.621" width="3.448" height="3.448" fill="#1A1A1A"/><rect x="48.276" y="58.621" width="3.448" height="3.448" fill="#1A1A1A"/><rect x="55.172" y="58.621" width="3.448" height="3.448" fill="#1A1A1A"/><rect x="62.069" y="58.621" width="3.448" height="3.448" fill="#1A1A1A"/><rect x="68.966" y="58.621" width="3.448" height="3.448" fill="#1A1A1A"/><rect x="72.414" y="58.621" width="3.448" height="3.448" fill="#1A1A1A"/><rect x="75.862" y="58.621" width="3.448" height="3.448" fill="#1A1A1A"/><rect x="82.759" y="58.621" width="3.448" height="3.448" fill="#1A1A1A"/><rect x="86.207" y="58.621" width="3.448" height="3.448" fill="#1A1A1A"/><rect x="93.103" y="58.621" width="3.448" height="3.448" fill="#1A1A1A"/><rect x="0.000" y="62.069" width="3.448" height="3.448" fill="#1A1A1A"/><rect x="6.897" y="62.069" width="3.448" height="3.448" fill="#1A1A1A"/><rect x="13.793" y="62.069" width="3.448" height="3.448" fill="#1A1A1A"/><rect x="17.241" y="62.069" width="3.448" height="3.448" fill="#1A1A1A"/><rect x="20.690" y="62.069" width="3.448" height="3.448" fill="#1A1A1A"/><rect x="24.138" y="62.069" width="3.448" height="3.448" fill="#1A1A1A"/><rect x="27.586" y="62.069" width="3.448" height="3.448" fill="#1A1A1A"/><rect x="31.034" y="62.069" width="3.448" height="3.448" fill="#1A1A1A"/><rect x="44.828" y="62.069" width="3.448" height="3.448" fill="#1A1A1A"/><rect x="51.724" y="62.069" width="3.448" height="3.448" fill="#1A1A1A"/><rect x="55.172" y="62.069" width="3.448" height="3.448" fill="#1A1A1A"/><rect x="58.621" y="62.069" width="3.448" height="3.448" fill="#1A1A1A"/><rect x="62.069" y="62.069" width="3.448" height="3.448" fill="#1A1A1A"/><rect x="68.966" y="62.069" width="3.448" height="3.448" fill="#1A1A1A"/><rect x="72.414" y="62.069" width="3.448" height="3.448" fill="#1A1A1A"/><rect x="79.310" y="62.069" width="3.448" height="3.448" fill="#1A1A1A"/><rect x="82.759" y="62.069" width="3.448" height="3.448" fill="#1A1A1A"/><rect x="0.000" y="65.517" width="3.448" height="3.448" fill="#1A1A1A"/><rect x="6.897" y="65.517" width="3.448" height="3.448" fill="#1A1A1A"/><rect x="13.793" y="65.517" width="3.448" height="3.448" fill="#1A1A1A"/><rect x="34.483" y="65.517" width="3.448" height="3.448" fill="#1A1A1A"/><rect x="48.276" y="65.517" width="3.448" height="3.448" fill="#1A1A1A"/><rect x="55.172" y="65.517" width="3.448" height="3.448" fill="#1A1A1A"/><rect x="68.966" y="65.517" width="3.448" height="3.448" fill="#1A1A1A"/><rect x="82.759" y="65.517" width="3.448" height="3.448" fill="#1A1A1A"/><rect x="96.552" y="65.517" width="3.448" height="3.448" fill="#1A1A1A"/><rect x="0.000" y="68.966" width="3.448" height="3.448" fill="#1A1A1A"/><rect x="10.345" y="68.966" width="3.448" height="3.448" fill="#1A1A1A"/><rect x="13.793" y="68.966" width="3.448" height="3.448" fill="#1A1A1A"/><rect x="20.690" y="68.966" width="3.448" height="3.448" fill="#1A1A1A"/><rect x="27.586" y="68.966" width="3.448" height="3.448" fill="#1A1A1A"/><rect x="44.828" y="68.966" width="3.448" height="3.448" fill="#1A1A1A"/><rect x="58.621" y="68.966" width="3.448" height="3.448" fill="#1A1A1A"/><rect x="65.517" y="68.966" width="3.448" height="3.448" fill="#1A1A1A"/><rect x="68.966" y="68.966" width="3.448" height="3.448" fill="#1A1A1A"/><rect x="72.414" y="68.966" width="3.448" height="3.448" fill="#1A1A1A"/><rect x="75.862" y="68.966" width="3.448" height="3.448" fill="#1A1A1A"/><rect x="79.310" y="68.966" width="3.448" height="3.448" fill="#1A1A1A"/><rect x="82.759" y="68.966" width="3.448" height="3.448" fill="#1A1A1A"/><rect x="86.207" y="68.966" width="3.448" height="3.448" fill="#1A1A1A"/><rect x="89.655" y="68.966" width="3.448" height="3.448" fill="#1A1A1A"/><rect x="27.586" y="72.414" width="3.448" height="3.448" fill="#1A1A1A"/><rect x="31.034" y="72.414" width="3.448" height="3.448" fill="#1A1A1A"/><rect x="37.931" y="72.414" width="3.448" height="3.448" fill="#1A1A1A"/><rect x="44.828" y="72.414" width="3.448" height="3.448" fill="#1A1A1A"/><rect x="48.276" y="72.414" width="3.448" height="3.448" fill="#1A1A1A"/><rect x="55.172" y="72.414" width="3.448" height="3.448" fill="#1A1A1A"/><rect x="58.621" y="72.414" width="3.448" height="3.448" fill="#1A1A1A"/><rect x="62.069" y="72.414" width="3.448" height="3.448" fill="#1A1A1A"/><rect x="68.966" y="72.414" width="3.448" height="3.448" fill="#1A1A1A"/><rect x="82.759" y="72.414" width="3.448" height="3.448" fill="#1A1A1A"/><rect x="89.655" y="72.414" width="3.448" height="3.448" fill="#1A1A1A"/><rect x="0.000" y="75.862" width="3.448" height="3.448" fill="#1A1A1A"/><rect x="3.448" y="75.862" width="3.448" height="3.448" fill="#1A1A1A"/><rect x="6.897" y="75.862" width="3.448" height="3.448" fill="#1A1A1A"/><rect x="10.345" y="75.862" width="3.448" height="3.448" fill="#1A1A1A"/><rect x="13.793" y="75.862" width="3.448" height="3.448" fill="#1A1A1A"/><rect x="17.241" y="75.862" width="3.448" height="3.448" fill="#1A1A1A"/><rect x="20.690" y="75.862" width="3.448" height="3.448" fill="#1A1A1A"/><rect x="34.483" y="75.862" width="3.448" height="3.448" fill="#1A1A1A"/><rect x="41.379" y="75.862" width="3.448" height="3.448" fill="#1A1A1A"/><rect x="44.828" y="75.862" width="3.448" height="3.448" fill="#1A1A1A"/><rect x="51.724" y="75.862" width="3.448" height="3.448" fill="#1A1A1A"/><rect x="62.069" y="75.862" width="3.448" height="3.448" fill="#1A1A1A"/><rect x="65.517" y="75.862" width="3.448" height="3.448" fill="#1A1A1A"/><rect x="68.966" y="75.862" width="3.448" height="3.448" fill="#1A1A1A"/><rect x="75.862" y="75.862" width="3.448" height="3.448" fill="#1A1A1A"/><rect x="82.759" y="75.862" width="3.448" height="3.448" fill="#1A1A1A"/><rect x="89.655" y="75.862" width="3.448" height="3.448" fill="#1A1A1A"/><rect x="0.000" y="79.310" width="3.448" height="3.448" fill="#1A1A1A"/><rect x="20.690" y="79.310" width="3.448" height="3.448" fill="#1A1A1A"/><rect x="27.586" y="79.310" width="3.448" height="3.448" fill="#1A1A1A"/><rect x="34.483" y="79.310" width="3.448" height="3.448" fill="#1A1A1A"/><rect x="37.931" y="79.310" width="3.448" height="3.448" fill="#1A1A1A"/><rect x="41.379" y="79.310" width="3.448" height="3.448" fill="#1A1A1A"/><rect x="48.276" y="79.310" width="3.448" height="3.448" fill="#1A1A1A"/><rect x="51.724" y="79.310" width="3.448" height="3.448" fill="#1A1A1A"/><rect x="55.172" y="79.310" width="3.448" height="3.448" fill="#1A1A1A"/><rect x="62.069" y="79.310" width="3.448" height="3.448" fill="#1A1A1A"/><rect x="68.966" y="79.310" width="3.448" height="3.448" fill="#1A1A1A"/><rect x="82.759" y="79.310" width="3.448" height="3.448" fill="#1A1A1A"/><rect x="86.207" y="79.310" width="3.448" height="3.448" fill="#1A1A1A"/><rect x="93.103" y="79.310" width="3.448" height="3.448" fill="#1A1A1A"/><rect x="96.552" y="79.310" width="3.448" height="3.448" fill="#1A1A1A"/><rect x="0.000" y="82.759" width="3.448" height="3.448" fill="#1A1A1A"/><rect x="6.897" y="82.759" width="3.448" height="3.448" fill="#1A1A1A"/><rect x="10.345" y="82.759" width="3.448" height="3.448" fill="#1A1A1A"/><rect x="13.793" y="82.759" width="3.448" height="3.448" fill="#1A1A1A"/><rect x="20.690" y="82.759" width="3.448" height="3.448" fill="#1A1A1A"/><rect x="27.586" y="82.759" width="3.448" height="3.448" fill="#1A1A1A"/><rect x="34.483" y="82.759" width="3.448" height="3.448" fill="#1A1A1A"/><rect x="37.931" y="82.759" width="3.448" height="3.448" fill="#1A1A1A"/><rect x="58.621" y="82.759" width="3.448" height="3.448" fill="#1A1A1A"/><rect x="68.966" y="82.759" width="3.448" height="3.448" fill="#1A1A1A"/><rect x="72.414" y="82.759" width="3.448" height="3.448" fill="#1A1A1A"/><rect x="75.862" y="82.759" width="3.448" height="3.448" fill="#1A1A1A"/><rect x="79.310" y="82.759" width="3.448" height="3.448" fill="#1A1A1A"/><rect x="82.759" y="82.759" width="3.448" height="3.448" fill="#1A1A1A"/><rect x="86.207" y="82.759" width="3.448" height="3.448" fill="#1A1A1A"/><rect x="93.103" y="82.759" width="3.448" height="3.448" fill="#1A1A1A"/><rect x="96.552" y="82.759" width="3.448" height="3.448" fill="#1A1A1A"/><rect x="0.000" y="86.207" width="3.448" height="3.448" fill="#1A1A1A"/><rect x="6.897" y="86.207" width="3.448" height="3.448" fill="#1A1A1A"/><rect x="10.345" y="86.207" width="3.448" height="3.448" fill="#1A1A1A"/><rect x="13.793" y="86.207" width="3.448" height="3.448" fill="#1A1A1A"/><rect x="20.690" y="86.207" width="3.448" height="3.448" fill="#1A1A1A"/><rect x="27.586" y="86.207" width="3.448" height="3.448" fill="#1A1A1A"/><rect x="34.483" y="86.207" width="3.448" height="3.448" fill="#1A1A1A"/><rect x="41.379" y="86.207" width="3.448" height="3.448" fill="#1A1A1A"/><rect x="55.172" y="86.207" width="3.448" height="3.448" fill="#1A1A1A"/><rect x="62.069" y="86.207" width="3.448" height="3.448" fill="#1A1A1A"/><rect x="65.517" y="86.207" width="3.448" height="3.448" fill="#1A1A1A"/><rect x="82.759" y="86.207" width="3.448" height="3.448" fill="#1A1A1A"/><rect x="86.207" y="86.207" width="3.448" height="3.448" fill="#1A1A1A"/><rect x="93.103" y="86.207" width="3.448" height="3.448" fill="#1A1A1A"/><rect x="96.552" y="86.207" width="3.448" height="3.448" fill="#1A1A1A"/><rect x="0.000" y="89.655" width="3.448" height="3.448" fill="#1A1A1A"/><rect x="6.897" y="89.655" width="3.448" height="3.448" fill="#1A1A1A"/><rect x="10.345" y="89.655" width="3.448" height="3.448" fill="#1A1A1A"/><rect x="13.793" y="89.655" width="3.448" height="3.448" fill="#1A1A1A"/><rect x="20.690" y="89.655" width="3.448" height="3.448" fill="#1A1A1A"/><rect x="27.586" y="89.655" width="3.448" height="3.448" fill="#1A1A1A"/><rect x="34.483" y="89.655" width="3.448" height="3.448" fill="#1A1A1A"/><rect x="37.931" y="89.655" width="3.448" height="3.448" fill="#1A1A1A"/><rect x="51.724" y="89.655" width="3.448" height="3.448" fill="#1A1A1A"/><rect x="62.069" y="89.655" width="3.448" height="3.448" fill="#1A1A1A"/><rect x="65.517" y="89.655" width="3.448" height="3.448" fill="#1A1A1A"/><rect x="75.862" y="89.655" width="3.448" height="3.448" fill="#1A1A1A"/><rect x="79.310" y="89.655" width="3.448" height="3.448" fill="#1A1A1A"/><rect x="82.759" y="89.655" width="3.448" height="3.448" fill="#1A1A1A"/><rect x="86.207" y="89.655" width="3.448" height="3.448" fill="#1A1A1A"/><rect x="89.655" y="89.655" width="3.448" height="3.448" fill="#1A1A1A"/><rect x="93.103" y="89.655" width="3.448" height="3.448" fill="#1A1A1A"/><rect x="0.000" y="93.103" width="3.448" height="3.448" fill="#1A1A1A"/><rect x="20.690" y="93.103" width="3.448" height="3.448" fill="#1A1A1A"/><rect x="41.379" y="93.103" width="3.448" height="3.448" fill="#1A1A1A"/><rect x="44.828" y="93.103" width="3.448" height="3.448" fill="#1A1A1A"/><rect x="68.966" y="93.103" width="3.448" height="3.448" fill="#1A1A1A"/><rect x="82.759" y="93.103" width="3.448" height="3.448" fill="#1A1A1A"/><rect x="86.207" y="93.103" width="3.448" height="3.448" fill="#1A1A1A"/><rect x="93.103" y="93.103" width="3.448" height="3.448" fill="#1A1A1A"/><rect x="0.000" y="96.552" width="3.448" height="3.448" fill="#1A1A1A"/><rect x="3.448" y="96.552" width="3.448" height="3.448" fill="#1A1A1A"/><rect x="6.897" y="96.552" width="3.448" height="3.448" fill="#1A1A1A"/><rect x="10.345" y="96.552" width="3.448" height="3.448" fill="#1A1A1A"/><rect x="13.793" y="96.552" width="3.448" height="3.448" fill="#1A1A1A"/><rect x="17.241" y="96.552" width="3.448" height="3.448" fill="#1A1A1A"/><rect x="20.690" y="96.552" width="3.448" height="3.448" fill="#1A1A1A"/><rect x="27.586" y="96.552" width="3.448" height="3.448" fill="#1A1A1A"/><rect x="34.483" y="96.552" width="3.448" height="3.448" fill="#1A1A1A"/><rect x="48.276" y="96.552" width="3.448" height="3.448" fill="#1A1A1A"/><rect x="51.724" y="96.552" width="3.448" height="3.448" fill="#1A1A1A"/><rect x="55.172" y="96.552" width="3.448" height="3.448" fill="#1A1A1A"/><rect x="58.621" y="96.552" width="3.448" height="3.448" fill="#1A1A1A"/><rect x="65.517" y="96.552" width="3.448" height="3.448" fill="#1A1A1A"/><rect x="72.414" y="96.552" width="3.448" height="3.448" fill="#1A1A1A"/><rect x="82.759" y="96.552" width="3.448" height="3.448" fill="#1A1A1A"/><rect x="86.207" y="96.552" width="3.448" height="3.448" fill="#1A1A1A"/></svg>