<svg xmlns="http://www.w3.org/2000/svg" viewBox="326 177 121 176" width="121" height="176"><path transform="matrix(1,0,0,-1,437.2943,193.7768)" d="M0 0C-9.489-.492-18.979-.934-28.419-1.377-28.419-1.377-46.021 8.949-60.722 4.819-75.423 .738-83.339 1.819-83.339 1.819-79.068-1.627-74.784-5.072-70.501-8.518-66.2-5.463-56.165-.825-35.647-1.967-35.647-1.967-58.593-4.806-66.425-11.798-63.144-14.438-59.865-17.077-56.592-19.717-56.592-19.717-15.193-54.677-68.687-83.884-68.687-83.884-30.533-47.646-59.985-30.141-70.162-53.939-80.291-77.688-90.469-101.487-88.01-100.798-85.503-100.061-83.044-99.372-88.748-116.434-94.5-133.496-100.204-150.558-100.204-150.558-74.489-146.92-68.245-97.848-68.245-97.848 2.213-66.527-34.86-20.307-41.055-12.883-23.846-5.36 0 0" fill="#FF4A82" fill-rule="evenodd"/></svg>
