<svg viewBox="0 0 48 48" fill="none" stroke="currentColor" stroke-width="2.2" stroke-linecap="round" stroke-linejoin="round" xmlns="http://www.w3.org/2000/svg">
  <defs><clipPath id="eve-fr"><circle cx="24" cy="24" r="21.5"/></clipPath></defs>
  <!-- Ring mit Öffnung oben rechts — dort tritt die Hand heraus -->
  <path d="M42.8 13.6 A21.5 21.5 0 1 1 36.6 6.6" stroke-width="2"/>
  <circle cx="24" cy="10.8" r="2.6"/>
  <circle cx="24" cy="20" r="7"/>
  <path d="M19.9 19 C20.6 17.7 22.2 17.7 22.9 19" stroke-width="1.8"/>
  <path d="M25.1 19 C25.8 17.7 27.4 17.7 28.1 19" stroke-width="1.8"/>
  <path d="M21.3 22 C22.5 24 25.5 24 26.7 22" stroke-width="1.9"/>
  <g clip-path="url(#eve-fr)"><path d="M8.5 40 C10 32.5 16.5 29.5 24 29.5 C31.5 29.5 38 32.5 39.5 40"/></g>
  <path d="M19.5 30.5 L24 36.5 L28.5 30.5"/>
  <!-- Arm (statisch) -->
  <path d="M31.2 30.3 C34.8 27.4 36.9 23 38 13.8"/>
  <!-- Winkende Hand — Pivot: Handgelenk bei (38, 13) -->
  <g class="wave-hand">
    <g transform="translate(38 13) rotate(32)">
      <path d="M-4.2 -0.2 L-4.2 -2.0 C-6.2 -2.5 -7.0 -4.2 -6.0 -5.2 C-5.3 -5.9 -4.4 -5.5 -4.2 -4.4 L-4.2 -6.8 A1.4 1.4 0 0 1 -1.4 -6.8 L-1.4 -5.2 L-1.4 -7.8 A1.4 1.4 0 0 1 1.4 -7.8 L1.4 -5.2 L1.4 -6.4 A1.4 1.4 0 0 1 4.2 -6.4 L4.2 -0.2 Z" stroke-width="1.9"/>
    </g>
  </g>
</svg>
